<svg xmlns="http://www.w3.org/2000/svg" version="1.1" xmlns:xlink="http://www.w3.org/1999/xlink" xmlns:svgjs="http://svgjs.com/svgjs" width="1440" height="611" preserveAspectRatio="none" viewBox="0 0 1440 611"><g mask="url(&quot;#SvgjsMask1125&quot;)" fill="none"><rect width="1440" height="611" x="0" y="0" fill="rgba(244, 244, 244, 1)"></rect><path d="M1170.86 408.2L1231.62 408.2L1231.62 460.45L1170.86 460.45z" fill="rgba(93, 66, 211, 1)"></path><path d="M1177.57 215.22L1227.67 215.22L1227.67 265.32L1177.57 265.32z" fill="rgba(93, 66, 211, 1)"></path><path d="M482.28 582.84 a31.63 31.63 0 1 0 63.26 0 a31.63 31.63 0 1 0 -63.26 0z" fill="rgba(93, 66, 211, 1)"></path><path d="M91.06 561.16L91.26 561.16L91.26 561.36L91.06 561.36z" fill="rgba(254, 119, 74, 1)"></path><path d="M1106.38 590.18a5.27 5.27 0 1 0 10.2-2.68z" fill="rgba(254, 119, 74, 1)"></path><path d="M642.18 110.31L677.21 110.31L677.21 145.82L642.18 145.82z" stroke="rgba(255, 132, 91, 1)"></path><path d="M1033.53 448.57 a27.22 27.22 0 1 0 54.44 0 a27.22 27.22 0 1 0 -54.44 0z" stroke="rgba(255, 132, 91, 1)"></path><path d="M982.2 259.77a39.45 39.45 0 1 0 74.69 25.43z" stroke="rgba(255, 132, 91, 1)"></path><path d="M65.04 203.55L74.33 203.55L74.33 212.84L65.04 212.84z" stroke="rgba(254, 119, 74, 1)"></path><path d="M776.85 350.23L785.08 350.23L785.08 400.97L776.85 400.97z" fill="rgba(254, 119, 74, 1)"></path><path d="M1275.96 162.41 a57.44 57.44 0 1 0 114.88 0 a57.44 57.44 0 1 0 -114.88 0z" stroke="rgba(254, 119, 74, 1)"></path><path d="M203.19 545.52a8.84 8.84 0 1 0 10.78 14.02z" fill="rgba(255, 132, 91, 1)"></path><path d="M1426.52 370.99a45.86 45.86 0 1 0-81.8 41.49z" stroke="rgba(254, 119, 74, 1)"></path><path d="M980.86 277.88 a17.94 17.94 0 1 0 35.88 0 a17.94 17.94 0 1 0 -35.88 0z" fill="rgba(254, 119, 74, 1)"></path><path d="M1350.35 426.34L1363.89 426.34L1363.89 441.85L1350.35 441.85z" fill="rgba(255, 132, 91, 1)"></path><path d="M716.45-12.17a47.35 47.35 0 1 0-47.53 81.91z" stroke="rgba(255, 132, 91, 1)"></path><path d="M646.58 1.74 a26.98 26.98 0 1 0 53.96 0 a26.98 26.98 0 1 0 -53.96 0z" stroke="rgba(93, 66, 211, 1)"></path><path d="M46.32 584.08L54.36 584.08L54.36 600.17L46.32 600.17z" fill="rgba(93, 66, 211, 1)"></path><path d="M1412.17 394.18a20.15 20.15 0 1 0-36.04-18.04z" fill="rgba(254, 119, 74, 1)"></path><path d="M427.98 127.5L436.87 127.5L436.87 142.18L427.98 142.18z" fill="rgba(254, 119, 74, 1)"></path><path d="M1390.59 347.81L1442.19 347.81L1442.19 399.41L1390.59 399.41z" stroke="rgba(93, 66, 211, 1)"></path><path d="M1262.12 331.57a44.52 44.52 0 1 0-68.08-57.38z" fill="rgba(93, 66, 211, 1)"></path><path d="M961.77 419.7 a53.73 53.73 0 1 0 107.46 0 a53.73 53.73 0 1 0 -107.46 0z" fill="rgba(93, 66, 211, 1)"></path><path d="M1276.09 72.55a52.74 52.74 0 1 0 31.18-100.77z" stroke="rgba(255, 132, 91, 1)"></path><path d="M1344.35 327.08a12.58 12.58 0 1 0 12.09 22.07z" fill="rgba(255, 132, 91, 1)"></path><path d="M1073.56 24.2L1106.24 24.2L1106.24 56.88L1073.56 56.88z" stroke="rgba(255, 132, 91, 1)"></path><path d="M1182.83 344.33L1236.67 344.33L1236.67 398.17L1182.83 398.17z" stroke="rgba(93, 66, 211, 1)"></path><path d="M33.62 303.09a31.65 31.65 0 1 0 12.06 62.14z" stroke="rgba(255, 132, 91, 1)"></path><path d="M1311.03 589.5L1370 589.5L1370 648.47L1311.03 648.47z" stroke="rgba(254, 119, 74, 1)"></path><path d="M99.77-38.98a45.52 45.52 0 1 0-11.94 90.26z" fill="rgba(93, 66, 211, 1)"></path></g><defs><mask id="SvgjsMask1125"><rect width="1440" height="611" fill="#ffffff"></rect></mask></defs></svg>