<?xml version="1.0" encoding="UTF-8"?>
<svg xmlns="http://www.w3.org/2000/svg" xmlns:xlink="http://www.w3.org/1999/xlink" viewBox="0 0 32 32" width="32px" height="32px">
<g id="surface54185808">
<path style=" stroke:none;fill-rule:nonzero;fill:rgb(100%,100%,100%);fill-opacity:1;" d="M 6.652344 5.320312 C 6.109375 5.320312 5.621094 5.648438 5.417969 6.152344 C 5.214844 6.65625 5.335938 7.230469 5.722656 7.609375 L 14.113281 16 L 5.722656 24.390625 C 5.375 24.726562 5.234375 25.222656 5.355469 25.6875 C 5.480469 26.15625 5.84375 26.519531 6.3125 26.644531 C 6.777344 26.765625 7.273438 26.625 7.609375 26.277344 L 16 17.886719 L 24.390625 26.277344 C 24.726562 26.625 25.222656 26.765625 25.6875 26.644531 C 26.15625 26.519531 26.519531 26.15625 26.644531 25.6875 C 26.765625 25.222656 26.625 24.726562 26.277344 24.390625 L 17.886719 16 L 26.277344 7.609375 C 26.671875 7.226562 26.789062 6.640625 26.574219 6.132812 C 26.359375 5.628906 25.855469 5.304688 25.308594 5.320312 C 24.960938 5.332031 24.632812 5.476562 24.390625 5.722656 L 16 14.113281 L 7.609375 5.722656 C 7.359375 5.464844 7.011719 5.320312 6.652344 5.320312 Z M 6.652344 5.320312 "/>
</g>
</svg>
